<svg width="600" height="400" viewBox="0 0 600 400" fill="none" xmlns="http://www.w3.org/2000/svg">
<rect width="600" height="400" fill="none"/>
<g transform="translate(300, 200) scale(0.8)">
<circle cx="0" cy="0" r="150" fill="#F5F5F0" stroke="#C5A572" stroke-width="2"/>
<path d="M-148.5 21.2C-148.5 21.2 -138.7 40.5 -122.8 56.4C-106.9 72.3 -87.6 82.1 -87.6 82.1L-65.6 129.9L-21.2 148.5L21.2 148.5L65.6 129.9L87.6 82.1C87.6 82.1 106.9 72.3 122.8 56.4C138.7 40.5 148.5 21.2 148.5 21.2L129.9 -21.2L148.5 -65.6L129.9 -110L87.6 -129.9L65.6 -148.5L21.2 -129.9L-21.2 -129.9L-65.6 -148.5L-87.6 -129.9L-129.9 -110L-148.5 -65.6L-129.9 -21.2L-148.5 21.2Z" fill="#003366"/>
<path d="M-145.6 18.3C-145.6 18.3 -136.1 37.2 -120.5 52.8C-104.9 68.4 -86.0 77.9 -86.0 77.9L-64.4 124.8L-20.8 143.1L20.8 143.1L64.4 124.8L86.0 77.9C86.0 77.9 104.9 68.4 120.5 52.8C136.1 37.2 145.6 18.3 145.6 18.3L127.3 -23.3L145.6 -66.9L127.3 -110.5L86.0 -124.8L64.4 -143.1L20.8 -124.8L-20.8 -124.8L-64.4 -143.1L-86.0 -124.8L-127.3 -110.5L-145.6 -66.9L-127.3 -23.3L-145.6 18.3Z" stroke="#C5A572" stroke-width="2"/>
<path d="M-133.5 30.4C-133.5 30.4 -124.6 48.0 -110.1 62.5C-95.6 77.0 -78.0 85.9 -78.0 85.9L-58.4 128.5L-18.9 135.2L18.9 135.2L58.4 128.5L78.0 85.9C78.0 85.9 95.6 77.0 110.1 62.5C124.6 48.0 133.5 30.4 133.5 30.4L115.9 -14.1L133.5 -56.7L115.9 -99.3L78.0 -116.9L58.4 -135.2L18.9 -116.9L-18.9 -116.9L-58.4 -135.2L-78.0 -116.9L-115.9 -99.3L-133.5 -56.7L-115.9 -14.1L-133.5 30.4Z" fill="#F5F5F0"/>
<path d="M-45.9 0L-9.4 -19.5L27.1 -19.5L63.6 0L45.9 35.3L9.4 15.8L-27.1 15.8L-63.6 35.3L-45.9 0Z" fill="#C5A572"/>
<path d="M-42.4 -3.5L-9.4 -21.2L27.1 -21.2L60.1 -3.5L44.2 28.3L9.4 10.6L-27.1 10.6L-60.1 28.3L-42.4 -3.5Z" stroke="#003366" stroke-width="2"/>
<g transform="translate(0, -10)">
<path d="M-50 10 L-10 30 L30 10" fill="none" stroke="#003366" stroke-width="4"/>
<path d="M-10 30 L-10 70" fill="none" stroke="#003366" stroke-width="4"/>
<path d="M-40 20 L0 40 L40 20" fill="none" stroke="#003366" stroke-width="3"/>
<path d="M0 40 L0 75" fill="none" stroke="#003366" stroke-width="3"/>
<path d="M-50 10 Q-30 -10 -10 10" fill="#F5F5F0" stroke="#003366" stroke-width="2"/>
<path d="M-10 10 Q10 -10 30 10" fill="#F5F5F0" stroke="#003366" stroke-width="2"/>
<path d="M-48 12 Q-28 -6 -8 12 L-8 68 Q-28 50 -48 68 L-48 12" fill="#C5A572"/>
<path d="M-8 12 Q12 -6 32 12 L32 68 Q12 50 -8 68 L-8 12" fill="#C5A572"/>
<line x1="-10" y1="-10" x2="-10" y2="-40" stroke="#C5A572" stroke-width="2"/>
<line x1="-25" y1="-5" x2="-45" y2="-30" stroke="#C5A572" stroke-width="2"/>
<line x1="5" y1="-5" x2="25" y2="-30" stroke="#C5A572" stroke-width="2"/>
</g>
</g>
<g transform="translate(300, 350)">
<text x="0" y="0" font-family="serif" font-size="36" fill="#003366" text-anchor="middle">MeAndQuran</text>
</g>
</svg>